<?xml version="1.0" encoding="UTF-8"?>
<!DOCTYPE svg PUBLIC "-//W3C//DTD SVG 1.1//EN" "http://www.w3.org/Graphics/SVG/1.1/DTD/svg11.dtd">
<svg xmlns="http://www.w3.org/2000/svg" version="1.1" width="893px" height="365px" style="shape-rendering:geometricPrecision; text-rendering:geometricPrecision; image-rendering:optimizeQuality; fill-rule:evenodd; clip-rule:evenodd" xmlns:xlink="http://www.w3.org/1999/xlink">
<g><path style="opacity:1" fill="#fefefe" d="M -0.5,-0.5 C 297.167,-0.5 594.833,-0.5 892.5,-0.5C 892.5,121.167 892.5,242.833 892.5,364.5C 594.833,364.5 297.167,364.5 -0.5,364.5C -0.5,242.833 -0.5,121.167 -0.5,-0.5 Z"/></g>
<g><path style="opacity:1" fill="#2d2120" d="M 194.5,111.5 C 229.125,108.397 255.625,121.397 274,150.5C 282.598,167.952 284.932,186.285 281,205.5C 271.996,235.17 252.496,254.004 222.5,262C 183.694,267.514 155.194,253.014 137,218.5C 121.3,170.744 136.134,136.244 181.5,115C 186.012,114.038 190.345,112.871 194.5,111.5 Z"/></g>
<g><path style="opacity:1" fill="#cd928f" d="M 348.5,114.5 C 350.099,114.232 351.432,114.566 352.5,115.5C 351.833,115.5 351.5,115.833 351.5,116.5C 347.5,116.5 343.5,116.5 339.5,116.5C 342.5,115.833 345.5,115.167 348.5,114.5 Z"/></g>
<g><path style="opacity:1" fill="#fafafa" d="M 192.5,116.5 C 229.692,112.508 256.526,127.175 273,160.5C 275.669,165.195 274.502,168.028 269.5,169C 259.103,157.934 248.103,147.601 236.5,138C 212.449,125.069 189.782,127.069 168.5,144C 158,154.5 147.5,165 137,175.5C 140.892,153.573 152.392,136.74 171.5,125C 178.347,121.448 185.347,118.615 192.5,116.5 Z"/></g>
<g><path style="opacity:1" fill="#941d15" d="M 348.5,114.5 C 345.5,115.167 342.5,115.833 339.5,116.5C 324.781,119.391 316.281,128.391 314,143.5C 312.097,157.627 314.43,170.96 321,183.5C 327.598,190.545 335.765,193.879 345.5,193.5C 347.415,193.216 349.081,193.549 350.5,194.5C 314.384,195.87 299.218,178.536 305,142.5C 311.739,121.526 326.239,112.193 348.5,114.5 Z"/></g>
<g><path style="opacity:1" fill="#972319" d="M 489.5,116.5 C 496.653,116.117 498.653,118.951 495.5,125C 487.749,126.091 485.749,123.258 489.5,116.5 Z"/></g>
<g><path style="opacity:1" fill="#b0544c" d="M 351.5,116.5 C 351.5,115.833 351.833,115.5 352.5,115.5C 356.41,115.263 360.077,116.096 363.5,118C 359.479,117.965 355.479,117.465 351.5,116.5 Z"/></g>
<g><path style="opacity:1" fill="#921710" d="M 648.5,193.5 C 648.5,193.833 648.5,194.167 648.5,194.5C 643.551,195.041 638.884,194.208 634.5,192C 632.513,190.681 631.346,188.848 631,186.5C 630.5,170.503 630.333,154.503 630.5,138.5C 626.5,138.167 626.5,137.833 630.5,137.5C 630.5,133.833 630.5,130.167 630.5,126.5C 632.833,126.5 635.167,126.5 637.5,126.5C 637.5,130.167 637.5,133.833 637.5,137.5C 661.5,137.833 661.5,138.167 637.5,138.5C 637.333,153.837 637.5,169.17 638,184.5C 638.637,190.978 642.137,193.978 648.5,193.5 Z"/></g>
<g><path style="opacity:1" fill="#f9f9f9" d="M 195.5,135.5 C 213.29,133.046 228.957,137.546 242.5,149C 250.333,156.833 258.167,164.667 266,172.5C 266.667,173.167 266.667,173.833 266,174.5C 263,177.5 260,180.5 257,183.5C 247.833,174.333 238.667,165.167 229.5,156C 219.294,149.861 208.294,147.861 196.5,150C 191.055,151.888 186.055,154.555 181.5,158C 166.986,172.681 152.319,187.181 137.5,201.5C 135.676,195.616 135.176,189.616 136,183.5C 149.418,171.084 162.584,158.251 175.5,145C 181.601,140.448 188.268,137.281 195.5,135.5 Z"/></g>
<g><path style="opacity:1" fill="#d9aeac" d="M 391.5,137.5 C 395.5,136.167 399.5,136.167 403.5,137.5C 402.209,137.263 401.209,137.596 400.5,138.5C 397.833,138.5 395.167,138.5 392.5,138.5C 392.5,137.833 392.167,137.5 391.5,137.5 Z"/></g>
<g><path style="opacity:1" fill="#962218" d="M 400.5,138.5 C 401.209,137.596 402.209,137.263 403.5,137.5C 409.217,137.774 413.384,140.44 416,145.5C 416.333,160.5 416.667,175.5 417,190.5C 417.717,191.044 418.217,191.711 418.5,192.5C 417.791,193.404 416.791,193.737 415.5,193.5C 409.792,192.116 407.125,188.449 407.5,182.5C 408.833,169.833 408.833,157.167 407.5,144.5C 406.422,141.092 404.089,139.092 400.5,138.5 Z"/></g>
<g><path style="opacity:1" fill="#951f17" d="M 441.5,192.5 C 438.728,193.767 436.061,193.767 433.5,192.5C 444.364,174.611 455.364,156.778 466.5,139C 456.167,138.667 445.833,138.333 435.5,138C 448.513,137.167 461.513,137.334 474.5,138.5C 463.489,156.528 452.489,174.528 441.5,192.5 Z"/></g>
<g><path style="opacity:1" fill="#941d15" d="M 488.5,137.5 C 491.167,137.5 493.833,137.5 496.5,137.5C 496.333,155.17 496.5,172.836 497,190.5C 498.887,192.886 501.387,194.053 504.5,194C 501.167,194.667 497.833,194.667 494.5,194C 491.943,193.315 490.109,191.815 489,189.5C 488.5,172.17 488.333,154.837 488.5,137.5 Z"/></g>
<g><path style="opacity:1" fill="#d8aaa8" d="M 540.5,137.5 C 539.508,137.328 538.842,137.662 538.5,138.5C 535.5,138.5 532.5,138.5 529.5,138.5C 529.5,138.167 529.5,137.833 529.5,137.5C 533.167,136.167 536.833,136.167 540.5,137.5 Z"/></g>
<g><path style="opacity:1" fill="#911610" d="M 538.5,138.5 C 538.842,137.662 539.508,137.328 540.5,137.5C 545.947,137.692 550.113,140.025 553,144.5C 553.333,159.5 553.667,174.5 554,189.5C 554.377,190.942 555.21,191.942 556.5,192.5C 555.791,193.404 554.791,193.737 553.5,193.5C 548.911,192.576 545.911,189.909 544.5,185.5C 545.413,179.559 545.746,173.559 545.5,167.5C 545.5,167.167 545.5,166.833 545.5,166.5C 545.666,158.826 545.5,151.159 545,143.5C 543.473,140.988 541.306,139.321 538.5,138.5 Z"/></g>
<g><path style="opacity:1" fill="#91150f" d="M 578.5,147.5 C 578.539,148.756 578.039,149.756 577,150.5C 576.5,165.163 576.333,179.83 576.5,194.5C 573.833,194.5 571.167,194.5 568.5,194.5C 568.5,175.5 568.5,156.5 568.5,137.5C 571.167,137.5 573.833,137.5 576.5,137.5C 576.335,141.182 576.501,144.848 577,148.5C 577.383,147.944 577.883,147.611 578.5,147.5 Z"/></g>
<g><path style="opacity:1" fill="#ce9592" d="M 599.5,137.5 C 599.5,137.833 599.5,138.167 599.5,138.5C 594.638,138.118 589.972,138.784 585.5,140.5C 586.975,138.59 588.975,137.424 591.5,137C 594.367,136.199 597.034,136.366 599.5,137.5 Z"/></g>
<g><path style="opacity:1" fill="#d3a19f" d="M 684.5,137.5 C 687.833,136.167 691.167,136.167 694.5,137.5C 693.508,137.328 692.842,137.662 692.5,138.5C 690.167,138.5 687.833,138.5 685.5,138.5C 685.5,137.833 685.167,137.5 684.5,137.5 Z"/></g>
<g><path style="opacity:1" fill="#90110c" d="M 724.5,137.5 C 724.181,142.363 724.514,147.03 725.5,151.5C 725.5,152.167 725.5,152.833 725.5,153.5C 724.502,176.327 724.169,199.327 724.5,222.5C 722.167,222.5 719.833,222.5 717.5,222.5C 717.5,194.167 717.5,165.833 717.5,137.5C 719.833,137.5 722.167,137.5 724.5,137.5 Z"/></g>
<g><path style="opacity:1" fill="#b96864" d="M 724.5,137.5 C 725.323,140.977 725.823,144.644 726,148.5C 726.708,147.619 727.542,146.953 728.5,146.5C 727.89,148.434 726.89,150.101 725.5,151.5C 724.514,147.03 724.181,142.363 724.5,137.5 Z"/></g>
<g><path style="opacity:1" fill="#951f16" d="M 599.5,138.5 C 599.5,138.167 599.5,137.833 599.5,137.5C 605.957,136.975 610.457,139.642 613,145.5C 613.333,160.167 613.667,174.833 614,189.5C 615.849,192.677 618.682,194.177 622.5,194C 618.074,194.791 613.741,194.457 609.5,193C 607.951,191.786 606.785,190.286 606,188.5C 605.667,173.5 605.333,158.5 605,143.5C 603.924,140.921 602.091,139.254 599.5,138.5 Z"/></g>
<g><path style="opacity:1" fill="#fcf8f8" d="M 685.5,138.5 C 687.833,138.5 690.167,138.5 692.5,138.5C 697.09,139.921 700.256,142.921 702,147.5C 703.015,151.44 703.515,155.44 703.5,159.5C 692.448,160.143 681.781,159.476 671.5,157.5C 671.937,152.292 673.77,147.625 677,143.5C 679.313,140.928 682.146,139.261 685.5,138.5 Z"/></g>
<g><path style="opacity:1" fill="#941d15" d="M 747.5,138.5 C 747.5,138.167 747.5,137.833 747.5,137.5C 757.511,138.342 763.678,143.675 766,153.5C 770.973,183.853 758.473,197.02 728.5,193C 736.735,194.709 744.402,193.376 751.5,189C 757.157,181.693 759.824,173.36 759.5,164C 759.659,156.778 758.159,149.945 755,143.5C 753.143,140.8 750.643,139.134 747.5,138.5 Z"/></g>
<g><path style="opacity:1" fill="#bd6e69" d="M 391.5,137.5 C 392.167,137.5 392.5,137.833 392.5,138.5C 387.421,138.978 382.588,140.311 378,142.5C 377.409,141.517 377.743,140.85 379,140.5C 383.047,138.947 387.213,137.947 391.5,137.5 Z"/></g>
<g><path style="opacity:1" fill="#962118" d="M 684.5,137.5 C 685.167,137.5 685.5,137.833 685.5,138.5C 682.146,139.261 679.313,140.928 677,143.5C 673.77,147.625 671.937,152.292 671.5,157.5C 670.596,158.209 670.263,159.209 670.5,160.5C 669.967,169.082 671.134,177.416 674,185.5C 679.123,192.476 685.956,195.142 694.5,193.5C 694.5,193.833 694.5,194.167 694.5,194.5C 670.624,195.116 660.124,183.449 663,159.5C 665.662,147.672 672.829,140.339 684.5,137.5 Z"/></g>
<g><path style="opacity:1" fill="#951f16" d="M 692.5,138.5 C 692.842,137.662 693.508,137.328 694.5,137.5C 706.19,140.189 711.857,147.522 711.5,159.5C 708.833,159.5 706.167,159.5 703.5,159.5C 703.515,155.44 703.015,151.44 702,147.5C 700.256,142.921 697.09,139.921 692.5,138.5 Z"/></g>
<g><path style="opacity:1" fill="#c37d78" d="M 747.5,137.5 C 747.5,137.833 747.5,138.167 747.5,138.5C 742.969,138.15 738.636,138.817 734.5,140.5C 738.283,136.821 742.616,135.821 747.5,137.5 Z"/></g>
<g><path style="opacity:1" fill="#bb6c66" d="M 529.5,137.5 C 529.5,137.833 529.5,138.167 529.5,138.5C 524.372,139.534 519.372,140.7 514.5,142C 519.053,139.11 524.053,137.61 529.5,137.5 Z"/></g>
<g><path style="opacity:1" fill="#c88682" d="M 585.5,140.5 C 583.5,143.167 581.167,145.5 578.5,147.5C 579.833,144.167 582.167,141.833 585.5,140.5 Z"/></g>
<g><path style="opacity:1" fill="#a8443f" d="M 734.5,140.5 C 732.833,142.833 730.833,144.833 728.5,146.5C 729.5,143.5 731.5,141.5 734.5,140.5 Z"/></g>
<g><path style="opacity:1" fill="#fafafa" d="M 197.5,154.5 C 206.981,153.415 215.981,154.915 224.5,159C 234.47,167.97 244.137,177.303 253.5,187C 244.5,196 235.5,205 226.5,214C 214.049,222.222 201.383,222.556 188.5,215C 178.682,206.349 169.349,197.183 160.5,187.5C 169.319,178.181 178.319,169.014 187.5,160C 190.767,157.87 194.1,156.037 197.5,154.5 Z"/></g>
<g><path style="opacity:1" fill="#c68683" d="M 671.5,157.5 C 681.781,159.476 692.448,160.143 703.5,159.5C 706.167,159.5 708.833,159.5 711.5,159.5C 698.01,160.496 684.344,160.829 670.5,160.5C 670.263,159.209 670.596,158.209 671.5,157.5 Z"/></g>
<g><path style="opacity:1" fill="#c5817d" d="M 407.5,144.5 C 408.833,157.167 408.833,169.833 407.5,182.5C 407.5,177.5 407.5,172.5 407.5,167.5C 403.102,167.294 398.768,167.627 394.5,168.5C 393.791,167.596 392.791,167.263 391.5,167.5C 396.64,166.512 401.974,166.179 407.5,166.5C 407.5,159.167 407.5,151.833 407.5,144.5 Z"/></g>
<g><path style="opacity:1" fill="#bb6b67" d="M 529.5,167.5 C 534.64,166.512 539.974,166.179 545.5,166.5C 545.5,166.833 545.5,167.167 545.5,167.5C 540.797,167.437 536.13,167.771 531.5,168.5C 531.158,167.662 530.492,167.328 529.5,167.5 Z"/></g>
<g><path style="opacity:1" fill="#c27c79" d="M 364.5,169.5 C 361.713,168.523 358.713,168.19 355.5,168.5C 355.826,176.684 355.492,184.684 354.5,192.5C 354.5,184.833 354.5,177.167 354.5,169.5C 350.116,169.826 345.783,169.492 341.5,168.5C 350.833,167.167 360.167,167.167 369.5,168.5C 367.955,169.452 366.288,169.785 364.5,169.5 Z"/></g>
<g><path style="opacity:1" fill="#fdfcfc" d="M 545.5,167.5 C 545.746,173.559 545.413,179.559 544.5,185.5C 541.188,189.159 537.188,191.826 532.5,193.5C 523,194.164 518.666,189.664 519.5,180C 519.348,171.987 523.348,168.154 531.5,168.5C 536.13,167.771 540.797,167.437 545.5,167.5 Z"/></g>
<g><path style="opacity:1" fill="#2c2120" d="M 200.5,168.5 C 207.325,167.595 213.658,168.762 219.5,172C 224.5,177 229.5,182 234.5,187C 228.43,193.74 221.763,199.74 214.5,205C 205.712,208.207 198.045,206.541 191.5,200C 187.667,196.167 183.833,192.333 180,188.5C 179.333,187.5 179.333,186.5 180,185.5C 185.88,178.432 192.713,172.766 200.5,168.5 Z"/></g>
<g><path style="opacity:1" fill="#90120c" d="M 364.5,169.5 C 364.5,176.833 364.5,184.167 364.5,191.5C 361.461,192.01 358.461,192.677 355.5,193.5C 354.209,193.737 353.209,193.404 352.5,192.5C 353.167,192.5 353.833,192.5 354.5,192.5C 355.492,184.684 355.826,176.684 355.5,168.5C 358.713,168.19 361.713,168.523 364.5,169.5 Z"/></g>
<g><path style="opacity:1" fill="#99271d" d="M 391.5,167.5 C 392.791,167.263 393.791,167.596 394.5,168.5C 386.743,168.265 382.409,171.932 381.5,179.5C 381.676,184.88 383.676,189.38 387.5,193C 388.833,193.167 390.167,193.333 391.5,193.5C 395.339,192.931 399.006,192.098 402.5,191C 400.779,192.527 398.779,193.527 396.5,194C 381.07,197.225 373.57,191.059 374,175.5C 378.2,169.51 384.034,166.843 391.5,167.5 Z"/></g>
<g><path style="opacity:1" fill="#962118" d="M 529.5,167.5 C 530.492,167.328 531.158,167.662 531.5,168.5C 523.348,168.154 519.348,171.987 519.5,180C 518.666,189.664 523,194.164 532.5,193.5C 532.5,193.833 532.5,194.167 532.5,194.5C 516.958,196.659 510.124,189.992 512,174.5C 516.676,169.368 522.509,167.035 529.5,167.5 Z"/></g>
<g><path style="opacity:1" fill="#fbfbfb" d="M 275.5,172.5 C 276.268,173.263 276.768,174.263 277,175.5C 277.667,180.5 277.667,185.5 277,190.5C 264.138,203.696 250.971,216.53 237.5,229C 224.864,237.981 210.864,240.981 195.5,238C 188.189,236.345 181.522,233.345 175.5,229C 165.986,219.653 156.652,210.153 147.5,200.5C 150.167,197.167 153.167,194.167 156.5,191.5C 166.349,201.183 176.349,210.683 186.5,220C 200.68,227.612 214.68,227.278 228.5,219C 244.673,203.994 260.339,188.494 275.5,172.5 Z"/></g>
<g><path style="opacity:1" fill="#fafafa" d="M 202.5,172.5 C 207.618,171.889 212.285,173.056 216.5,176C 220.167,179.667 223.833,183.333 227.5,187C 223.134,191.701 218.467,196.034 213.5,200C 209.594,201.434 205.594,201.767 201.5,201C 196.199,196.7 191.199,192.034 186.5,187C 191.431,181.562 196.764,176.728 202.5,172.5 Z"/></g>
<g><path style="opacity:1" fill="#bd6e69" d="M 544.5,185.5 C 542.05,190.409 538.05,193.409 532.5,194.5C 532.5,194.167 532.5,193.833 532.5,193.5C 537.188,191.826 541.188,189.159 544.5,185.5 Z"/></g>
<g><path style="opacity:1" fill="#deb7b6" d="M 469.5,194.5 C 460.167,193.833 450.833,193.167 441.5,192.5C 452.172,192.667 462.839,192.5 473.5,192C 475.303,191.363 476.636,190.197 477.5,188.5C 478.105,189.587 477.772,190.754 476.5,192C 474.257,193.136 471.924,193.97 469.5,194.5 Z"/></g>
<g><path style="opacity:1" fill="#bc6f6c" d="M 725.5,153.5 C 724.864,166.582 725.531,179.415 727.5,192C 725.86,202.088 724.86,212.255 724.5,222.5C 724.169,199.327 724.502,176.327 725.5,153.5 Z"/></g>
<g><path style="opacity:1" fill="#d29d9a" d="M 345.5,193.5 C 347.607,192.532 349.941,192.198 352.5,192.5C 353.209,193.404 354.209,193.737 355.5,193.5C 354.081,194.451 352.415,194.784 350.5,194.5C 349.081,193.549 347.415,193.216 345.5,193.5 Z"/></g>
<g><path style="opacity:1" fill="#b6615c" d="M 418.5,192.5 C 420.482,192.995 422.482,193.495 424.5,194C 421.304,194.805 418.304,194.638 415.5,193.5C 416.791,193.737 417.791,193.404 418.5,192.5 Z"/></g>
<g><path style="opacity:1" fill="#ad504b" d="M 433.5,192.5 C 436.061,193.767 438.728,193.767 441.5,192.5C 450.833,193.167 460.167,193.833 469.5,194.5C 457.149,194.832 444.815,194.499 432.5,193.5C 432.624,192.893 432.957,192.56 433.5,192.5 Z"/></g>
<g><path style="opacity:1" fill="#b7635f" d="M 556.5,192.5 C 558.414,193.185 560.414,193.685 562.5,194C 559.304,194.805 556.304,194.638 553.5,193.5C 554.791,193.737 555.791,193.404 556.5,192.5 Z"/></g>
<g><path style="opacity:1" fill="#cc8f8c" d="M 648.5,194.5 C 648.5,194.167 648.5,193.833 648.5,193.5C 651.512,192.662 654.512,192.162 657.5,192C 654.702,193.396 651.702,194.23 648.5,194.5 Z"/></g>
<g><path style="opacity:1" fill="#be726d" d="M 694.5,194.5 C 694.5,194.167 694.5,193.833 694.5,193.5C 699.16,192.331 703.826,191.498 708.5,191C 704.022,192.913 699.355,194.08 694.5,194.5 Z"/></g>
<g><path style="opacity:1" fill="#fafafa" d="M 275.5,198.5 C 274.16,214.349 267.494,227.849 255.5,239C 227.469,262.189 197.802,264.523 166.5,246C 153.719,236.595 144.719,224.428 139.5,209.5C 140.048,207.444 141.214,205.777 143,204.5C 151.5,213 160,221.5 168.5,230C 192.627,248.585 217.294,249.251 242.5,232C 253.702,220.965 264.702,209.798 275.5,198.5 Z"/></g>
<g><path style="opacity:1" fill="#302625" d="M 480.5,238.5 C 490.408,238.594 494.241,243.594 492,253.5C 489.89,258.945 486.056,260.778 480.5,259C 478.185,257.891 476.685,256.057 476,253.5C 474.252,247.298 475.752,242.298 480.5,238.5 Z"/></g>
<g><path style="opacity:1" fill="#2f2524" d="M 523.5,249.5 C 525.5,249.5 527.5,249.5 529.5,249.5C 529.5,252.167 529.5,254.833 529.5,257.5C 522.768,261.386 517.935,259.719 515,252.5C 513.234,242.945 517.067,238.445 526.5,239C 527.672,239.419 528.672,240.085 529.5,241C 518.206,239.689 514.706,244.522 519,255.5C 525.182,259.342 528.015,257.676 527.5,250.5C 525.901,250.768 524.568,250.434 523.5,249.5 Z"/></g>
<g><path style="opacity:1" fill="#2b2120" d="M 497.5,238.5 C 500.518,238.335 503.518,238.502 506.5,239C 510.213,240.691 511.379,243.525 510,247.5C 509.167,249 508,250.167 506.5,251C 507.916,253.835 509.583,256.502 511.5,259C 510.5,259.667 509.5,259.667 508.5,259C 507.084,256.165 505.417,253.498 503.5,251C 502.207,250.51 500.873,250.343 499.5,250.5C 499.817,253.572 499.484,256.572 498.5,259.5C 497.503,252.532 497.17,245.532 497.5,238.5 Z"/></g>
<g><path style="opacity:1" fill="#3c3232" d="M 539.5,238.5 C 541.124,238.36 542.29,239.027 543,240.5C 544.934,246.136 546.767,251.802 548.5,257.5C 548.167,258.167 547.833,258.833 547.5,259.5C 546.218,257.821 545.218,255.987 544.5,254C 541.854,253.503 539.187,253.336 536.5,253.5C 536.553,256.061 535.553,258.061 533.5,259.5C 534.224,252.307 536.224,245.307 539.5,238.5 Z"/></g>
<g><path style="opacity:1" fill="#2b2120" d="M 552.5,238.5 C 554.017,238.511 555.184,239.177 556,240.5C 558.921,245.341 561.588,250.341 564,255.5C 564.17,249.804 564.67,244.138 565.5,238.5C 566.497,245.468 566.83,252.468 566.5,259.5C 565.325,259.719 564.325,259.386 563.5,258.5C 560.667,253.5 557.833,248.5 555,243.5C 554.829,248.864 554.329,254.198 553.5,259.5C 552.503,252.532 552.17,245.532 552.5,238.5 Z"/></g>
<g><path style="opacity:1" fill="#211816" d="M 572.5,239.5 C 574.459,245.75 575.126,252.416 574.5,259.5C 572.541,253.25 571.874,246.584 572.5,239.5 Z"/></g>
<g><path style="opacity:1" fill="#7c7675" d="M 572.5,239.5 C 573.209,238.596 574.209,238.263 575.5,238.5C 575.825,245.687 575.491,252.687 574.5,259.5C 575.126,252.416 574.459,245.75 572.5,239.5 Z"/></g>
<g><path style="opacity:1" fill="#372e2d" d="M 580.5,238.5 C 581.5,238.5 582.5,238.5 583.5,238.5C 583.335,241.85 583.502,245.183 584,248.5C 586.312,245.354 588.812,242.354 591.5,239.5C 592.5,238.167 593.5,238.167 594.5,239.5C 592.5,241.833 590.5,244.167 588.5,246.5C 590.833,250.5 593.167,254.5 595.5,258.5C 594.5,259.833 593.5,259.833 592.5,258.5C 587.536,246.169 584.536,246.502 583.5,259.5C 582.5,259.5 581.5,259.5 580.5,259.5C 580.5,252.5 580.5,245.5 580.5,238.5 Z"/></g>
<g><path style="opacity:1" fill="#f4f3f3" d="M 481.5,240.5 C 485.182,239.725 487.682,241.059 489,244.5C 489.667,247.833 489.667,251.167 489,254.5C 484.498,258.867 480.832,258.201 478,252.5C 476.745,247.738 477.912,243.738 481.5,240.5 Z"/></g>
<g><path style="opacity:1" fill="#eae9e9" d="M 499.5,240.5 C 501.527,240.338 503.527,240.505 505.5,241C 509.037,242.826 509.371,245.16 506.5,248C 504.19,248.497 501.857,248.663 499.5,248.5C 499.5,245.833 499.5,243.167 499.5,240.5 Z"/></g>
<g><path style="opacity:1" fill="#d2d0cf" d="M 539.5,241.5 C 542.16,244.113 543.493,247.446 543.5,251.5C 541.5,251.5 539.5,251.5 537.5,251.5C 538.374,248.211 539.041,244.877 539.5,241.5 Z"/></g>
<g><path style="opacity:1" fill="#766f6e" d="M 523.5,249.5 C 525.607,248.532 527.941,248.198 530.5,248.5C 530.81,251.713 530.477,254.713 529.5,257.5C 529.5,254.833 529.5,252.167 529.5,249.5C 527.5,249.5 525.5,249.5 523.5,249.5 Z"/></g>
</svg>
