<?xml version="1.0" encoding="UTF-8"?>
<!DOCTYPE svg PUBLIC "-//W3C//DTD SVG 1.1//EN" "http://www.w3.org/Graphics/SVG/1.1/DTD/svg11.dtd">
<svg xmlns="http://www.w3.org/2000/svg" version="1.1" width="558px" height="462px" style="shape-rendering:geometricPrecision; text-rendering:geometricPrecision; image-rendering:optimizeQuality; fill-rule:evenodd; clip-rule:evenodd" xmlns:xlink="http://www.w3.org/1999/xlink">
<g><path style="opacity:1" fill="#f3f4f3" d="M -0.5,-0.5 C 185.5,-0.5 371.5,-0.5 557.5,-0.5C 557.5,2.5 557.5,5.5 557.5,8.5C 371.5,8.5 185.5,8.5 -0.5,8.5C -0.5,5.5 -0.5,2.5 -0.5,-0.5 Z"/></g>
<g><path style="opacity:1" fill="#fefefe" d="M -0.5,8.5 C 185.5,8.5 371.5,8.5 557.5,8.5C 557.5,159.5 557.5,310.5 557.5,461.5C 371.5,461.5 185.5,461.5 -0.5,461.5C -0.5,310.5 -0.5,159.5 -0.5,8.5 Z"/></g>
<g><path style="opacity:1" fill="#cb3a37" d="M 263.5,205.5 C 263.178,163.457 263.511,121.457 264.5,79.5C 265.343,77.8267 266.676,76.66 268.5,76C 292.255,75.0206 315.921,75.354 339.5,77C 341.378,78.5429 342.878,80.3762 344,82.5C 344.667,122.833 344.667,163.167 344,203.5C 343.117,206.102 341.617,208.269 339.5,210C 315.921,211.646 292.255,211.979 268.5,211C 265.944,209.945 264.277,208.112 263.5,205.5 Z"/></g>
<g><path style="opacity:1" fill="#f3d4d3" d="M 291.5,82.5 C 299.5,82.5 307.5,82.5 315.5,82.5C 315.67,83.8221 315.337,84.9887 314.5,86C 306.833,86.6667 299.167,86.6667 291.5,86C 290.316,84.8545 290.316,83.6879 291.5,82.5 Z"/></g>
<g><path style="opacity:1" fill="#d05250" d="M 264.5,79.5 C 263.511,121.457 263.178,163.457 263.5,205.5C 262.335,164.002 262.169,122.335 263,80.5C 263.383,79.944 263.883,79.6107 264.5,79.5 Z"/></g>
<g><path style="opacity:1" fill="#e6a8a7" d="M 335.5,184.5 C 335.5,154.167 335.5,123.833 335.5,93.5C 313.833,93.5 292.167,93.5 270.5,93.5C 270.5,123.833 270.5,154.167 270.5,184.5C 269.502,154.005 269.169,123.338 269.5,92.5C 291.833,92.5 314.167,92.5 336.5,92.5C 336.831,123.338 336.498,154.005 335.5,184.5 Z"/></g>
<g><path style="opacity:1" fill="#fdfafa" d="M 335.5,184.5 C 313.833,184.5 292.167,184.5 270.5,184.5C 270.5,154.167 270.5,123.833 270.5,93.5C 292.167,93.5 313.833,93.5 335.5,93.5C 335.5,123.833 335.5,154.167 335.5,184.5 Z"/></g>
<g><path style="opacity:1" fill="#e09694" d="M 276.5,109.5 C 280.514,109.334 284.514,109.501 288.5,110C 289.626,113.744 289.793,117.577 289,121.5C 276.427,126.092 272.26,122.092 276.5,109.5 Z"/></g>
<g><path style="opacity:1" fill="#ca3230" d="M 309.5,110.5 C 309.763,114.6 309.43,118.6 308.5,122.5C 304.818,122.665 301.152,122.499 297.5,122C 296.167,118 296.167,114 297.5,110C 301.689,109.188 305.689,109.355 309.5,110.5 Z"/></g>
<g><path style="opacity:1" fill="#d36463" d="M 317.5,109.5 C 321.833,109.5 326.167,109.5 330.5,109.5C 330.666,113.514 330.499,117.514 330,121.5C 326,122.833 322,122.833 318,121.5C 317.501,117.514 317.334,113.514 317.5,109.5 Z"/></g>
<g><path style="opacity:1" fill="#e7a2a1" d="M 309.5,110.5 C 310.162,112.304 310.495,114.304 310.5,116.5C 310.461,118.952 309.794,120.952 308.5,122.5C 309.43,118.6 309.763,114.6 309.5,110.5 Z"/></g>
<g><path style="opacity:1" fill="#a0322d" d="M 276.5,130.5 C 288.187,127.852 292.187,132.185 288.5,143.5C 276.286,146.95 272.286,142.617 276.5,130.5 Z"/></g>
<g><path style="opacity:1" fill="#cc403c" d="M 297.5,130.5 C 301.437,130.207 305.27,130.54 309,131.5C 309.796,135.755 309.629,139.921 308.5,144C 304.577,144.793 300.744,144.626 297,143.5C 296.232,139.08 296.398,134.747 297.5,130.5 Z"/></g>
<g><path style="opacity:1" fill="#e6afaf" d="M 318.5,130.5 C 322.437,130.207 326.27,130.54 330,131.5C 330.796,135.755 330.629,139.921 329.5,144C 325.577,144.793 321.744,144.626 318,143.5C 317.232,139.08 317.398,134.747 318.5,130.5 Z"/></g>
<g><path style="opacity:1" fill="#e19898" d="M 251.5,142.5 C 251.56,141.957 251.893,141.624 252.5,141.5C 253.82,149.657 253.82,157.657 252.5,165.5C 252.825,157.648 252.492,149.982 251.5,142.5 Z"/></g>
<g><path style="opacity:1" fill="#ca3836" d="M 251.5,142.5 C 252.492,149.982 252.825,157.648 252.5,165.5C 239.638,193.692 244.972,217.859 268.5,238C 271.727,240.112 275.06,241.945 278.5,243.5C 281.865,245.462 285.532,246.962 289.5,248C 297.345,248.822 305.011,248.656 312.5,247.5C 337.208,242.126 352.208,227.126 357.5,202.5C 358.655,195.345 358.822,188.012 358,180.5C 356.962,176.532 355.462,172.865 353.5,169.5C 353.334,161.16 353.5,152.827 354,144.5C 372.108,165.28 377.108,188.946 369,215.5C 359.321,241.511 340.821,257.011 313.5,262C 290.784,265.488 270.784,259.654 253.5,244.5C 247.775,246.346 246.108,250.013 248.5,255.5C 248.485,257.634 247.985,259.634 247,261.5C 229.095,278.742 210.595,295.242 191.5,311C 183.367,312.553 177.867,309.387 175,301.5C 174.333,298.167 174.333,294.833 175,291.5C 192.322,275.236 209.822,259.069 227.5,243C 231.827,239.847 236.327,239.68 241,242.5C 242.674,241.165 244.341,239.831 246,238.5C 246.667,237.5 246.667,236.5 246,235.5C 240.491,227.483 236.325,218.816 233.5,209.5C 231.936,200.241 231.269,190.908 231.5,181.5C 234.175,166.485 240.841,153.485 251.5,142.5 Z"/></g>
<g><path style="opacity:1" fill="#d4605f" d="M 276.5,152.5 C 280.514,152.334 284.514,152.501 288.5,153C 289.626,156.744 289.793,160.577 289,164.5C 276.427,169.092 272.26,165.092 276.5,152.5 Z"/></g>
<g><path style="opacity:1" fill="#db8484" d="M 297.5,152.5 C 301.437,152.207 305.27,152.54 309,153.5C 309.499,157.486 309.666,161.486 309.5,165.5C 305.233,165.797 301.066,165.464 297,164.5C 296.238,160.413 296.404,156.413 297.5,152.5 Z"/></g>
<g><path style="opacity:1" fill="#9a2523" d="M 318.5,152.5 C 322.437,152.207 326.27,152.54 330,153.5C 330.499,157.486 330.666,161.486 330.5,165.5C 326.167,165.5 321.833,165.5 317.5,165.5C 317.231,161.069 317.564,156.735 318.5,152.5 Z"/></g>
<g><path style="opacity:1" fill="#f2d0cf" d="M 231.5,181.5 C 231.269,190.908 231.936,200.241 233.5,209.5C 232.224,207.438 231.39,205.104 231,202.5C 230.179,195.321 230.345,188.321 231.5,181.5 Z"/></g>
<g><path style="opacity:1" fill="#eab2b1" d="M 353.5,169.5 C 355.462,172.865 356.962,176.532 358,180.5C 358.822,188.012 358.655,195.345 357.5,202.5C 357.666,195.492 357.5,188.492 357,181.5C 355.516,177.553 354.35,173.553 353.5,169.5 Z"/></g>
<g><path style="opacity:1" fill="#fbefee" d="M 291.5,192.5 C 299.174,192.334 306.841,192.5 314.5,193C 316.396,194.808 316.896,196.975 316,199.5C 307.579,200.649 299.079,200.816 290.5,200C 289.083,197.257 289.416,194.757 291.5,192.5 Z"/></g>
<g><path style="opacity:1" fill="#eec0bf" d="M 278.5,243.5 C 282.553,244.35 286.553,245.516 290.5,247C 297.826,247.5 305.159,247.666 312.5,247.5C 305.011,248.656 297.345,248.822 289.5,248C 285.532,246.962 281.865,245.462 278.5,243.5 Z"/></g>
<g><path style="opacity:1" fill="#f0c9c8" d="M 42.5,338.5 C 37.2693,336.4 31.936,336.067 26.5,337.5C 26.6107,336.883 26.944,336.383 27.5,336C 31.1667,335.333 34.8333,335.333 38.5,336C 40.3197,336.2 41.653,337.034 42.5,338.5 Z"/></g>
<g><path style="opacity:1" fill="#cb3c39" d="M 42.5,338.5 C 44.5,339.833 46.1667,341.5 47.5,343.5C 48.2653,346.096 48.5987,348.763 48.5,351.5C 47.9283,354.244 46.2617,355.077 43.5,354C 42.2141,350.847 40.2141,348.181 37.5,346C 31.4345,344.104 27.1012,345.938 24.5,351.5C 23.7784,351.918 23.2784,352.584 23,353.5C 22.1864,358.02 22.353,362.354 23.5,366.5C 24.6179,375.224 29.2846,378.058 37.5,375C 40.0414,373.152 41.0414,370.652 40.5,367.5C 38.4727,367.662 36.4727,367.495 34.5,367C 32.4732,365.604 32.1398,363.938 33.5,362C 38.0466,360.455 42.7133,360.121 47.5,361C 52.3509,379.157 45.3509,387.157 26.5,385C 19.1907,381.013 15.024,374.846 14,366.5C 11.9847,355.212 15.1514,345.712 23.5,338C 24.448,337.517 25.448,337.351 26.5,337.5C 31.936,336.067 37.2693,336.4 42.5,338.5 Z"/></g>
<g><path style="opacity:1" fill="#cd433f" d="M 511.5,336.5 C 514.044,336.104 516.211,336.771 518,338.5C 518.333,346.5 518.667,354.5 519,362.5C 522.097,358.73 525.764,355.73 530,353.5C 533.697,354.926 534.363,357.26 532,360.5C 529.115,363.048 526.615,365.882 524.5,369C 526.95,372.453 529.783,375.62 533,378.5C 533.987,382.506 532.487,384.339 528.5,384C 525.651,380.984 522.651,378.15 519.5,375.5C 518.686,378.419 517.686,381.252 516.5,384C 513.472,385.14 511.305,384.306 510,381.5C 509.333,367.167 509.333,352.833 510,338.5C 510.717,337.956 511.217,337.289 511.5,336.5 Z"/></g>
<g><path style="opacity:1" fill="#cc403c" d="M 129.5,337.5 C 134.714,336.711 136.714,338.711 135.5,343.5C 129.134,345.801 127.134,343.801 129.5,337.5 Z"/></g>
<g><path style="opacity:1" fill="#cb3c39" d="M 313.5,367.5 C 313.109,360.349 313.775,353.349 315.5,346.5C 321.512,336.742 329.845,334.242 340.5,339C 349.13,347.417 351.964,357.584 349,369.5C 344.748,382.873 335.915,387.039 322.5,382C 317.586,378.336 314.586,373.502 313.5,367.5 Z"/></g>
<g><path style="opacity:1" fill="#cd423e" d="M 497.5,337.5 C 502.714,336.711 504.714,338.711 503.5,343.5C 497.134,345.801 495.134,343.801 497.5,337.5 Z"/></g>
<g><path style="opacity:1" fill="#cc3f3b" d="M 224.5,339.5 C 227.325,339.081 229.491,340.081 231,342.5C 231.498,345.817 231.665,349.15 231.5,352.5C 234.187,352.336 236.854,352.503 239.5,353C 242.371,355.84 242.037,358.174 238.5,360C 236.19,360.497 233.857,360.663 231.5,360.5C 231.666,368.174 231.5,375.841 231,383.5C 227.606,385.275 224.94,384.608 223,381.5C 222.5,374.508 222.334,367.508 222.5,360.5C 219.813,360.664 217.146,360.497 214.5,360C 211.601,356.844 211.935,354.178 215.5,352C 217.81,351.503 220.143,351.337 222.5,351.5C 222.079,347.258 222.746,343.258 224.5,339.5 Z"/></g>
<g><path style="opacity:1" fill="#e8aaa9" d="M 47.5,343.5 C 49.0265,344.492 49.6932,345.992 49.5,348C 49.4857,349.385 49.1524,350.551 48.5,351.5C 48.5987,348.763 48.2653,346.096 47.5,343.5 Z"/></g>
<g><path style="opacity:1" fill="#f1c6c5" d="M 335.5,346.5 C 332.098,346.342 328.764,346.676 325.5,347.5C 326.898,345.467 328.898,344.467 331.5,344.5C 333.355,344.34 334.688,345.007 335.5,346.5 Z"/></g>
<g><path style="opacity:1" fill="#fefafa" d="M 335.5,346.5 C 338.39,347.899 339.89,350.232 340,353.5C 340.667,358.5 340.667,363.5 340,368.5C 336,376.5 330.667,377.5 324,371.5C 321.656,365.369 320.989,359.036 322,352.5C 322.697,350.416 323.864,348.749 325.5,347.5C 328.764,346.676 332.098,346.342 335.5,346.5 Z"/></g>
<g><path style="opacity:1" fill="#ce4540" d="M 129.5,350.5 C 132.368,350.085 134.535,351.085 136,353.5C 136.667,362.5 136.667,371.5 136,380.5C 133.778,385.228 131.111,385.561 128,381.5C 127.333,372.167 127.333,362.833 128,353.5C 128.513,352.473 129.013,351.473 129.5,350.5 Z"/></g>
<g><path style="opacity:1" fill="#d96f6d" d="M 315.5,346.5 C 313.775,353.349 313.109,360.349 313.5,367.5C 312.349,362.35 312.183,357.016 313,351.5C 313.374,349.509 314.207,347.842 315.5,346.5 Z"/></g>
<g><path style="opacity:1" fill="#cc403c" d="M 375.5,360.5 C 374.726,359.853 373.726,359.52 372.5,359.5C 370.645,359.34 369.312,360.007 368.5,361.5C 367.206,362.29 366.039,363.29 365,364.5C 364.667,370.167 364.333,375.833 364,381.5C 361.856,386.295 359.19,386.628 356,382.5C 355.333,372.5 355.333,362.5 356,352.5C 358.153,350.556 360.653,350.056 363.5,351C 364.227,352.399 364.727,353.899 365,355.5C 365.903,354.299 367.069,353.465 368.5,353C 374.076,351.528 378.909,352.695 383,356.5C 383.667,357.833 383.667,359.167 383,360.5C 380.502,361.779 378.002,361.779 375.5,360.5 Z"/></g>
<g><path style="opacity:1" fill="#cc3e3a" d="M 503.5,352.5 C 503.784,362.552 503.45,372.552 502.5,382.5C 499.636,385.276 497.47,384.609 496,380.5C 495.08,370.758 495.413,361.092 497,351.5C 499.456,350.158 501.622,350.491 503.5,352.5 Z"/></g>
<g><path style="opacity:1" fill="#cd413d" d="M 97.5,351.5 C 104.508,351.334 111.508,351.5 118.5,352C 119.416,352.374 120.25,352.874 121,353.5C 121.552,356.419 120.885,359.086 119,361.5C 114.806,366.06 110.972,370.894 107.5,376C 111.951,376.13 116.284,376.796 120.5,378C 121.935,380.267 121.602,382.267 119.5,384C 112.274,385.594 104.94,385.928 97.5,385C 94.9133,383.475 94.0799,381.308 95,378.5C 99.3097,372.689 103.81,367.023 108.5,361.5C 104.541,360.673 100.541,360.173 96.5,360C 93.6655,356.695 93.9988,353.862 97.5,351.5 Z"/></g>
<g><path style="opacity:1" fill="#cc3f3c" d="M 183.5,351.5 C 186.885,351.025 189.218,352.358 190.5,355.5C 198.644,351.458 204.81,353.458 209,361.5C 209.667,368.5 209.667,375.5 209,382.5C 207.211,384.229 205.044,384.896 202.5,384.5C 201.793,378.2 201.293,371.867 201,365.5C 200.06,362.558 198.06,361.225 195,361.5C 192.966,361.354 191.299,362.02 190,363.5C 189.922,370.274 189.255,376.941 188,383.5C 186.333,384.833 184.667,384.833 183,383.5C 181.882,378.274 181.382,372.941 181.5,367.5C 181.667,362.833 181.833,358.167 182,353.5C 182.717,352.956 183.217,352.289 183.5,351.5 Z"/></g>
<g><path style="opacity:1" fill="#cc403c" d="M 293.5,381.5 C 291.5,381.5 289.5,381.5 287.5,381.5C 287.5,386.5 287.5,391.5 287.5,396.5C 286.538,400.146 284.205,401.313 280.5,400C 279.874,399.25 279.374,398.416 279,397.5C 278.167,382.822 278.334,368.155 279.5,353.5C 282.889,351.51 286.556,351.01 290.5,352C 303.372,353.569 308.538,360.736 306,373.5C 303.385,378.559 299.218,381.226 293.5,381.5 Z"/></g>
<g><path style="opacity:1" fill="#cd433f" d="M 463.5,351.5 C 467.224,350.773 469.891,352.106 471.5,355.5C 477.765,352.179 483.265,353.179 488,358.5C 489.104,362.72 489.604,367.053 489.5,371.5C 489.468,375.552 489.135,379.552 488.5,383.5C 486.647,384.76 484.814,384.76 483,383.5C 481.745,376.941 481.078,370.274 481,363.5C 477.667,360.833 474.333,360.833 471,363.5C 470.879,370.246 470.212,376.913 469,383.5C 467.225,386.044 465.392,386.044 463.5,383.5C 461.975,377.963 461.309,372.296 461.5,366.5C 461.667,362.5 461.833,358.5 462,354.5C 462.513,353.473 463.013,352.473 463.5,351.5 Z"/></g>
<g><path style="opacity:1" fill="#cc3f3b" d="M 253.5,352.5 C 263.698,350.922 270.364,354.922 273.5,364.5C 273.55,367.574 272.217,369.741 269.5,371C 263.843,371.499 258.176,371.666 252.5,371.5C 252.137,373.911 253.137,375.411 255.5,376C 260.274,376.654 264.94,376.154 269.5,374.5C 273.38,376.653 273.38,379.153 269.5,382C 250.446,388.283 242.279,381.45 245,361.5C 247.362,357.973 250.196,354.973 253.5,352.5 Z"/></g>
<g><path style="opacity:1" fill="#cc3e3b" d="M 72.5,383.5 C 68.8019,383.448 65.1352,383.114 61.5,382.5C 52.9957,375.101 52.329,366.934 59.5,358C 67.6782,352.734 75.1782,353.568 82,360.5C 84.0666,366.866 86.2332,373.2 88.5,379.5C 88.2017,383.226 86.2017,384.393 82.5,383C 81.2986,382.097 80.4652,380.931 80,379.5C 78.117,382.024 75.617,383.358 72.5,383.5 Z"/></g>
<g><path style="opacity:1" fill="#cb3c39" d="M 159.5,383.5 C 155.802,383.448 152.135,383.114 148.5,382.5C 145.246,380.323 143.246,377.323 142.5,373.5C 142.552,369.802 142.886,366.135 143.5,362.5C 148.48,354.504 155.48,352.338 164.5,356C 166,357.5 167.5,359 169,360.5C 169.873,366.248 171.873,371.581 175,376.5C 176.913,382.094 175.08,384.261 169.5,383C 167.452,378.61 165.118,378.61 162.5,383C 161.552,383.483 160.552,383.649 159.5,383.5 Z"/></g>
<g><path style="opacity:1" fill="#cc403c" d="M 450.5,362.5 C 450.41,365.152 451.076,367.485 452.5,369.5C 454.368,372.577 455.701,375.91 456.5,379.5C 456.202,383.226 454.202,384.393 450.5,383C 449.382,381.926 448.382,380.76 447.5,379.5C 439.639,386.495 432.139,386.162 425,378.5C 421.757,372.517 421.757,366.517 425,360.5C 431.251,353.989 438.418,352.823 446.5,357C 448.464,358.451 449.797,360.284 450.5,362.5 Z"/></g>
<g><path style="opacity:1" fill="#cc403c" d="M 399.5,355.5 C 403.514,355.334 407.514,355.501 411.5,356C 414.428,357.26 416.261,359.427 417,362.5C 418.136,373.4 417.136,384.067 414,394.5C 412.457,396.378 410.624,397.878 408.5,399C 404.5,399.667 400.5,399.667 396.5,399C 391.131,397.422 388.965,393.922 390,388.5C 390.725,387.941 391.558,387.608 392.5,387.5C 394.898,388.389 396.898,389.889 398.5,392C 406.075,393.589 409.075,390.756 407.5,383.5C 394.524,385.36 388.357,379.694 389,366.5C 390.684,360.984 394.184,357.318 399.5,355.5 Z"/></g>
<g><path style="opacity:1" fill="#ebb8b7" d="M 24.5,351.5 C 23.746,356.463 23.4126,361.463 23.5,366.5C 22.353,362.354 22.1864,358.02 23,353.5C 23.2784,352.584 23.7784,351.918 24.5,351.5 Z"/></g>
<g><path style="opacity:1" fill="#df8a88" d="M 375.5,360.5 C 373.097,360.448 370.764,360.781 368.5,361.5C 369.312,360.007 370.645,359.34 372.5,359.5C 373.726,359.52 374.726,359.853 375.5,360.5 Z"/></g>
<g><path style="opacity:1" fill="#fbf1f1" d="M 265.5,362.5 C 263.952,363.794 261.952,364.461 259.5,364.5C 257.304,364.495 255.304,364.162 253.5,363.5C 253.956,360.714 255.623,359.381 258.5,359.5C 261.218,359.695 263.551,360.695 265.5,362.5 Z"/></g>
<g><path style="opacity:1" fill="#fcf4f4" d="M 287.5,361.5 C 290.794,361.259 293.794,362.092 296.5,364C 298.358,371.318 295.358,374.484 287.5,373.5C 287.5,369.5 287.5,365.5 287.5,361.5 Z"/></g>
<g><path style="opacity:1" fill="#e1918f" d="M 440.5,362.5 C 437.763,362.401 435.096,362.735 432.5,363.5C 433.492,361.974 434.992,361.307 437,361.5C 438.385,361.514 439.551,361.848 440.5,362.5 Z"/></g>
<g><path style="opacity:1" fill="#fcf6f6" d="M 65.5,362.5 C 75.6163,361.635 78.283,365.801 73.5,375C 64.7379,377.91 61.2379,374.744 63,365.5C 64.045,364.627 64.8783,363.627 65.5,362.5 Z"/></g>
<g><path style="opacity:1" fill="#fcf3f2" d="M 152.5,362.5 C 163.436,361.55 166.103,365.717 160.5,375C 151.738,377.91 148.238,374.744 150,365.5C 151.045,364.627 151.878,363.627 152.5,362.5 Z"/></g>
<g><path style="opacity:1" fill="#fcf6f6" d="M 440.5,362.5 C 441.458,362.953 442.292,363.619 443,364.5C 443.929,368.244 443.429,371.744 441.5,375C 432.682,377.852 429.182,374.685 431,365.5C 431.278,364.584 431.778,363.918 432.5,363.5C 435.096,362.735 437.763,362.401 440.5,362.5 Z"/></g>
<g><path style="opacity:1" fill="#fbf1f1" d="M 399.5,363.5 C 402.777,363.216 405.943,363.549 409,364.5C 409.667,367.833 409.667,371.167 409,374.5C 402.79,379.156 398.623,377.656 396.5,370C 396.84,367.489 397.84,365.322 399.5,363.5 Z"/></g>
<g><path style="opacity:1" fill="#e08c8b" d="M 265.5,362.5 C 266.404,363.209 266.737,364.209 266.5,365.5C 261.786,365.827 257.12,365.493 252.5,364.5C 252.624,363.893 252.957,363.56 253.5,363.5C 255.304,364.162 257.304,364.495 259.5,364.5C 261.952,364.461 263.952,363.794 265.5,362.5 Z"/></g>
<g><path style="opacity:1" fill="#e59e9d" d="M 143.5,362.5 C 142.886,366.135 142.552,369.802 142.5,373.5C 141.098,369.71 141.431,366.044 143.5,362.5 Z"/></g>
<g><path style="opacity:1" fill="#e08d8b" d="M 450.5,362.5 C 451.924,364.515 452.59,366.848 452.5,369.5C 451.076,367.485 450.41,365.152 450.5,362.5 Z"/></g>
<g><path style="opacity:1" fill="#e49d9c" d="M 503.5,352.5 C 504.658,361.991 504.825,371.658 504,381.5C 503.617,382.056 503.117,382.389 502.5,382.5C 503.45,372.552 503.784,362.552 503.5,352.5 Z"/></g>
<g><path style="opacity:1" fill="#df8785" d="M 61.5,382.5 C 65.1352,383.114 68.8019,383.448 72.5,383.5C 68.7104,384.902 65.0437,384.569 61.5,382.5 Z"/></g>
<g><path style="opacity:1" fill="#df8785" d="M 148.5,382.5 C 152.135,383.114 155.802,383.448 159.5,383.5C 155.71,384.902 152.044,384.569 148.5,382.5 Z"/></g>
<g><path style="opacity:1" fill="#ecbbba" d="M 293.5,381.5 C 292.081,382.451 290.415,382.784 288.5,382.5C 288.819,387.363 288.486,392.03 287.5,396.5C 287.5,391.5 287.5,386.5 287.5,381.5C 289.5,381.5 291.5,381.5 293.5,381.5 Z"/></g>
</svg>
