<?xml version="1.0" standalone="no"?>
<!DOCTYPE svg PUBLIC "-//W3C//DTD SVG 20010904//EN"
 "http://www.w3.org/TR/2001/REC-SVG-20010904/DTD/svg10.dtd">
<svg version="1.0" xmlns="http://www.w3.org/2000/svg"
 width="893.000000pt" height="365.000000pt" viewBox="0 0 893.000000 365.000000"
 preserveAspectRatio="xMidYMid meet">

<g transform="translate(0.000000,365.000000) scale(0.100000,-0.100000)"
fill="#000000" stroke="none">
<path d="M1905 2515 c-212 -47 -400 -190 -507 -385 -125 -227 -115 -529 25
-753 108 -173 281 -299 477 -348 89 -22 279 -17 375 10 260 73 470 287 535
545 27 108 27 274 0 382 -66 262 -287 481 -551 544 -99 23 -261 26 -354 5z
m284 -40 c75 -8 198 -56 268 -103 96 -65 207 -191 253 -286 22 -45 40 -87 40
-93 0 -5 -9 -18 -20 -28 -20 -18 -23 -15 -173 132 -135 133 -162 154 -237 191
-175 85 -375 77 -547 -24 -27 -15 -128 -107 -227 -203 -194 -192 -193 -191
-146 -53 49 140 184 305 312 380 76 45 188 83 273 92 69 7 97 7 204 -5z m31
-202 c94 -25 158 -71 310 -219 l145 -143 -50 -50 -49 -51 -141 139 c-153 152
-201 183 -304 200 -76 12 -153 1 -228 -34 -45 -20 -100 -70 -289 -257 -129
-127 -236 -229 -239 -227 -2 3 -7 43 -11 90 l-6 84 202 195 c111 107 221 206
244 221 117 72 273 92 416 52z m-12 -199 c40 -18 89 -59 193 -161 l140 -137
-128 -129 c-70 -71 -145 -140 -166 -153 -54 -35 -149 -57 -212 -49 -94 11
-145 44 -293 189 l-137 135 140 141 c82 83 157 149 182 161 86 42 192 43 281
3z m571 -260 l1 -71 -197 -194 c-256 -252 -322 -290 -506 -290 -117 -1 -193
20 -282 76 -46 29 -315 289 -315 304 0 4 20 27 45 51 l44 44 143 -140 c89 -87
161 -148 189 -162 66 -32 159 -45 234 -33 113 17 150 44 400 292 180 178 231
224 237 211 4 -9 7 -49 7 -88z m-24 -241 c-54 -186 -196 -350 -380 -438 -111
-53 -181 -68 -310 -68 -194 0 -345 63 -486 203 -88 87 -125 140 -165 238 l-22
55 21 18 c22 17 23 16 157 -116 74 -73 164 -151 199 -174 166 -106 387 -116
563 -25 60 32 105 69 253 216 109 107 181 171 183 163 2 -8 -4 -41 -13 -72z"/>
<path d="M2028 1961 c-20 -4 -49 -16 -65 -26 -37 -24 -163 -146 -163 -157 0
-17 164 -169 197 -184 46 -20 117 -17 161 5 20 11 72 55 115 98 l78 79 -84 82
c-46 45 -95 85 -108 90 -40 15 -92 20 -131 13z m100 -56 c20 -9 63 -41 94 -73
l58 -56 -43 -44 c-70 -73 -115 -102 -159 -102 -52 0 -82 17 -150 87 l-58 59
63 61 c85 85 122 98 195 68z"/>
<path d="M3345 2489 c-121 -20 -213 -88 -261 -192 -28 -59 -29 -69 -29 -197 1
-118 4 -143 24 -194 40 -100 147 -181 254 -192 l42 -5 -44 19 c-138 59 -201
195 -188 410 7 130 34 201 101 268 54 55 122 84 195 84 38 0 139 -15 174 -26
15 -4 19 -3 12 4 -24 26 -183 38 -280 21z"/>
<path d="M4889 2459 c-18 -34 3 -69 40 -69 41 0 59 32 36 66 -20 30 -60 32
-76 3z"/>
<path d="M6310 2326 c0 -34 -5 -56 -12 -59 -10 -4 -10 -6 0 -6 9 -1 12 -55 12
-235 0 -129 4 -246 10 -260 14 -37 51 -57 117 -61 44 -3 49 -2 23 3 -20 5 -41
11 -47 15 -23 14 -33 113 -33 322 l0 214 93 4 92 3 -92 2 -93 2 0 55 0 55 -35
0 -35 0 0 -54z"/>
<path d="M4030 2252 c50 -25 60 -52 60 -169 l0 -102 -57 -4 -58 -3 58 -2 57
-2 0 -71 c0 -39 -5 -80 -11 -91 -7 -13 -7 -18 -1 -14 6 4 12 -5 14 -20 4 -37
43 -61 108 -68 55 -6 58 -3 8 8 -41 9 -48 47 -48 275 0 175 -3 210 -16 230
-20 28 -72 51 -116 51 l-33 0 35 -18z"/>
<path d="M4513 2263 c86 -2 157 -6 157 -8 0 -2 -73 -120 -162 -262 -88 -142
-163 -266 -166 -275 -4 -17 8 -18 174 -16 174 2 175 2 42 5 -76 2 -138 7 -138
12 0 5 72 124 161 266 88 142 163 264 166 271 4 12 -29 14 -193 12 l-199 -2
158 -3z"/>
<path d="M4890 2010 c0 -249 1 -260 21 -278 22 -22 64 -33 113 -31 27 2 28 2
6 6 -60 11 -60 12 -60 300 l0 263 -40 0 -40 0 0 -260z"/>
<path d="M5404 2255 c54 -28 55 -35 56 -245 0 -166 -3 -199 -17 -220 -9 -14
-10 -20 -3 -13 11 10 16 8 24 -9 17 -33 57 -57 106 -61 25 -2 35 -2 23 0 -49
9 -53 31 -53 261 0 184 -2 218 -17 243 -20 34 -68 59 -115 59 l-33 0 29 -15z"/>
<path d="M5690 1984 l0 -285 38 3 37 3 5 220 c3 121 4 248 2 283 l-3 62 -39 0
-40 0 0 -286z"/>
<path d="M6006 2260 c50 -20 54 -40 54 -256 0 -111 3 -216 6 -233 9 -43 40
-61 111 -66 48 -4 52 -3 23 4 -58 16 -60 23 -60 258 0 175 -3 220 -16 244 -17
33 -67 59 -111 58 -26 0 -26 -1 -7 -9z"/>
<path d="M6794 2256 c-52 -23 -110 -83 -134 -139 -27 -60 -32 -183 -11 -255
28 -98 132 -164 254 -160 l62 1 -65 6 c-75 7 -96 17 -138 65 -34 39 -52 106
-52 195 0 136 42 237 115 278 45 26 22 32 -31 9z"/>
<path d="M6960 2249 c42 -29 72 -86 78 -151 l5 -48 39 0 40 0 -7 43 c-15 91
-72 152 -160 173 l-30 7 35 -24z"/>
<path d="M7180 1845 l0 -425 35 0 c26 0 35 4 36 18 0 9 0 77 -1 150 -1 116 0
132 15 132 15 0 15 1 1 16 -14 13 -16 43 -14 197 3 201 4 204 72 276 33 35 36
40 13 26 -16 -10 -39 -34 -53 -54 -13 -20 -25 -31 -25 -26 -3 17 -6 59 -8 88
-1 24 -5 27 -36 27 l-35 0 0 -425z"/>
<path d="M7398 2263 c7 -3 16 -2 19 1 4 3 -2 6 -13 5 -11 0 -14 -3 -6 -6z"/>
<path d="M7496 2256 c71 -31 98 -102 97 -256 -1 -197 -55 -275 -203 -290 l-65
-7 54 -2 c136 -3 244 63 275 170 18 59 21 196 6 250 -22 80 -102 150 -170 149
-24 -1 -24 -1 6 -14z"/>
<path d="M3858 2253 c7 -3 16 -2 19 1 4 3 -2 6 -13 5 -11 0 -14 -3 -6 -6z"/>
<path d="M5175 2240 c-13 -5 -14 -9 -5 -9 8 0 24 4 35 9 13 5 14 9 5 9 -8 0
-24 -4 -35 -9z"/>
<path d="M5814 2208 l-19 -23 23 19 c12 11 22 21 22 23 0 8 -8 2 -26 -19z"/>
<path d="M5373 1973 c15 -2 39 -2 55 0 15 2 2 4 -28 4 -30 0 -43 -2 -27 -4z"/>
<path d="M3875 1963 c-11 -2 -40 -11 -64 -20 -68 -25 -86 -93 -44 -175 20 -40
81 -68 145 -67 l53 2 -44 7 c-54 8 -86 42 -96 99 -14 84 12 125 92 147 45 12
46 13 13 12 -19 0 -44 -2 -55 -5z"/>
<path d="M5217 1956 c-66 -18 -97 -49 -97 -98 0 -99 61 -159 161 -157 53 1 53
2 14 8 -22 4 -46 10 -54 15 -40 25 -56 156 -23 196 10 12 40 28 67 35 47 13
48 14 15 14 -19 0 -57 -6 -83 -13z"/>
<path d="M3488 1953 l72 -4 0 -114 c0 -99 -2 -114 -17 -119 -10 -3 4 -3 31 0
79 9 76 4 76 124 l0 109 28 4 c15 2 -38 4 -118 4 -80 -1 -112 -3 -72 -4z"/>
<path d="M4030 1748 c-19 -16 -26 -26 -15 -20 18 9 64 53 54 52 -2 -1 -20 -15
-39 -32z"/>
<path d="M5381 1734 c-19 -13 -30 -24 -26 -24 9 0 75 40 75 46 0 9 -16 1 -49
-22z"/>
<path d="M4759 1733 c-13 -16 -12 -17 4 -4 16 13 21 21 13 21 -2 0 -10 -8 -17
-17z"/>
<path d="M6538 1713 c7 -3 16 -2 19 1 4 3 -2 6 -13 5 -11 0 -14 -3 -6 -6z"/>
<path d="M6998 1713 c7 -3 16 -2 19 1 4 3 -2 6 -13 5 -11 0 -14 -3 -6 -6z"/>
<path d="M7298 1713 c7 -3 16 -2 19 1 4 3 -2 6 -13 5 -11 0 -14 -3 -6 -6z"/>
<path d="M3413 1703 c20 -2 54 -2 75 0 20 2 3 4 -38 4 -41 0 -58 -2 -37 -4z"/>
<path d="M4785 1234 c-37 -39 -36 -121 1 -158 59 -59 144 -12 144 79 0 92 -89
140 -145 79z m85 -4 c58 -31 38 -160 -25 -160 -58 0 -85 112 -36 151 26 22 35
23 61 9z"/>
<path d="M4980 1155 c0 -63 4 -105 10 -105 6 0 10 20 10 45 0 38 3 45 20 45
12 0 29 -16 46 -45 14 -25 32 -45 40 -45 11 0 9 10 -10 43 -25 43 -25 43 -6
60 27 23 26 72 -2 91 -12 9 -42 16 -65 16 l-43 0 0 -105z m91 75 c41 -23 16
-70 -38 -70 -32 0 -33 1 -33 40 0 36 2 40 26 40 14 0 34 -5 45 -10z"/>
<path d="M5178 1230 c-28 -28 -30 -35 -26 -82 6 -63 40 -98 93 -98 44 0 62 20
61 67 -1 35 -3 38 -33 41 -19 2 -33 -1 -33 -7 0 -6 9 -11 21 -11 17 0 20 -5
17 -32 -3 -29 -7 -33 -35 -36 -23 -2 -35 3 -47 20 -18 25 -21 90 -6 118 12 23
55 34 80 20 12 -6 21 -6 25 -1 3 6 -3 15 -14 20 -35 19 -71 12 -103 -19z"/>
<path d="M5395 1248 c-45 -128 -65 -191 -61 -195 10 -10 25 8 31 37 6 27 10
30 46 30 35 0 39 -3 47 -32 8 -31 33 -52 31 -26 0 7 -15 53 -32 102 -30 85
-51 114 -62 84z m45 -110 c0 -5 -13 -8 -30 -8 -32 0 -35 6 -21 42 5 13 12 32
16 43 6 16 10 12 21 -25 7 -25 14 -48 14 -52z"/>
<path d="M5530 1156 c0 -64 4 -106 10 -106 6 0 10 34 10 83 l1 82 47 -82 c26
-46 53 -83 60 -83 9 0 12 28 12 105 0 63 -4 105 -10 105 -6 0 -10 -36 -10 -87
l0 -88 -48 84 c-26 47 -53 86 -59 89 -10 3 -13 -22 -13 -102z"/>
<path d="M5730 1156 c0 -89 3 -106 15 -106 13 0 15 16 13 102 -2 70 -7 103
-15 106 -10 3 -13 -22 -13 -102z"/>
<path d="M5817 1253 c-4 -3 -7 -51 -7 -105 0 -80 3 -98 15 -98 10 0 15 10 15
34 0 19 8 44 18 55 17 22 17 22 47 -33 17 -31 36 -56 43 -56 18 0 16 6 -24 71
l-36 59 32 36 c17 20 28 39 25 43 -4 3 -29 -18 -56 -48 l-49 -55 0 52 c0 48
-7 62 -23 45z"/>
</g>
</svg>
