<?xml version="1.0" encoding="UTF-8"?>
<svg version="1.1" xmlns="http://www.w3.org/2000/svg" width="32" height="32">
<path d="M0 0 C4.8846525 2.26787438 7.73212562 5.1153475 10 10 C10.75381535 15.5997712 10.77303575 20.33499991 8.375 25.5 C3.80134327 30.3143755 0.6912538 32.25156236 -6 32.5 C-12.6912538 32.25156236 -15.80134327 30.3143755 -20.375 25.5 C-22.77303575 20.33499991 -22.75381535 15.5997712 -22 10 C-17.52212837 0.3553534 -9.85292056 -1.32635469 0 0 Z " fill="#C72929" transform="translate(22,0)"/>
<path d="M0 0 C2.375 1.3125 2.375 1.3125 4 3 C4 3.99 4 4.98 4 6 C3.34 6 2.68 6 2 6 C2 6.66 2 7.32 2 8 C2.66 8.33 3.32 8.66 4 9 C4 11.97 4 14.94 4 18 C-0.56127128 20.28063564 -2.15822216 20.23245254 -7 19 C-9.97080593 15.98793288 -10.43177861 13.66516884 -10.4375 9.5 C-10.32942681 5.98057299 -10.21763722 4.35993848 -8.375 1.3125 C-5.2932166 -0.39059083 -3.47515996 -0.50679416 0 0 Z " fill="#C72E2E" transform="translate(11,6)"/>
<path d="M0 0 C0.33 0 0.66 0 1 0 C1.02578125 0.74765625 1.0515625 1.4953125 1.078125 2.265625 C1.37563691 8.2636566 1.37563691 8.2636566 3.5625 13.75 C7.33049823 15.68230679 9.89641246 14.87453505 14 14 C15.94369075 12.05630925 15.90714353 8.66122094 16.40234375 6.03125 C16.69818359 5.02578125 16.69818359 5.02578125 17 4 C17.66 3.67 18.32 3.34 19 3 C18.9071875 4.85625 18.9071875 4.85625 18.8125 6.75 C18.79637174 9.78211302 18.89348977 10.82248296 20.5 13.5 C20.995 13.995 21.49 14.49 22 15 C24.64 14.67 27.28 14.34 30 14 C28.82631753 17.28631091 27.01454322 19.3875249 24.0390625 21.234375 C19.5105283 22.93474416 14.72641136 22.63624768 10 22 C5.1153475 19.73212562 2.26787438 16.8846525 0 12 C-0.31903055 7.97609856 -0.23456961 4.02677826 0 0 Z " fill="#C52424" transform="translate(0,10)"/>
<path d="M0 0 C3.375 0.875 3.375 0.875 5.375 2.875 C5.5703125 5.2578125 5.5703125 5.2578125 5.5 8 C5.48195313 8.91007812 5.46390625 9.82015625 5.4453125 10.7578125 C5.42210937 11.45648438 5.39890625 12.15515625 5.375 12.875 C2.14679764 14.57801353 0.07003425 15.52163099 -3.625 14.875 C-6.45819507 12.27152345 -7.5031624 10.62125532 -8.125 6.8125 C-7.625 3.875 -7.625 3.875 -6.0625 1.4375 C-3.625 -0.125 -3.625 -0.125 0 0 Z " fill="#FCF3F3" transform="translate(25.625,11.125)"/>
<path d="M0 0 C2.375 1.3125 2.375 1.3125 4 3 C4 3.99 4 4.98 4 6 C3.01 6 2.02 6 1 6 C0.34 5.01 -0.32 4.02 -1 3 C-3.47266765 3.34444881 -3.47266765 3.34444881 -6 4 C-7.12256131 6.24512262 -7.13413762 7.51456649 -7.125 10 C-7.12757812 10.70125 -7.13015625 11.4025 -7.1328125 12.125 C-7.11377236 14.09153775 -7.11377236 14.09153775 -6 16 C-4.10466658 16.46523063 -4.10466658 16.46523063 -1.9375 16.625 C-0.638125 16.74875 0.66125 16.8725 2 17 C2 15.35 2 13.7 2 12 C0.35 12 -1.3 12 -3 12 C-3 11.34 -3 10.68 -3 10 C-0.69 10 1.62 10 4 10 C4 12.64 4 15.28 4 18 C1.24832603 19.8711383 -0.16177901 19.99432354 -3.5625 19.875 C-7 19 -7 19 -8.6875 17.2890625 C-11.07199954 13.13038175 -10.62693188 8.64211355 -10 4 C-7.41698404 -0.27191101 -4.81933704 -0.70281999 0 0 Z " fill="#FAECEC" transform="translate(11,6)"/>
<path d="M0 0 C2.625 0.375 2.625 0.375 5 1 C5.09765625 7.15234375 5.09765625 7.15234375 5 9 C4 10 4 10 1.5 10.125 C-1 10 -1 10 -2 9 C-2.1875 5.5625 -2.1875 5.5625 -2 2 C-1.34 1.34 -0.68 0.68 0 0 Z " fill="#C62727" transform="translate(23,13)"/>
<path d="M0 0 C2.31 0 4.62 0 7 0 C7.09765625 6.15234375 7.09765625 6.15234375 7 8 C6 9 6 9 2.4375 9.0625 C1.303125 9.041875 0.16875 9.02125 -1 9 C2.75 7 2.75 7 5 7 C5 5.35 5 3.7 5 2 C3.35 2 1.7 2 0 2 C0 1.34 0 0.68 0 0 Z " fill="#FCF6F6" transform="translate(8,16)"/>
<path d="M0 0 C0.33 0 0.66 0 1 0 C1.01417969 0.72445313 1.02835937 1.44890625 1.04296875 2.1953125 C1.38134365 9.05426327 2.30971242 12.06285518 7 17 C6.67 17.99 6.34 18.98 6 20 C-0.13577586 12.76293103 -0.13577586 12.76293103 -0.0625 5.875 C-0.05347656 4.77929688 -0.04445312 3.68359375 -0.03515625 2.5546875 C-0.02355469 1.71164062 -0.01195312 0.86859375 0 0 Z " fill="#CE4444" transform="translate(0,10)"/>
<path d="M0 0 C1.41377341 2.63904371 2.37240135 5.07120629 3 8 C-0.13498292 9.85776765 -2.37471432 10.20140476 -6 10 C-5.67 9.01 -5.34 8.02 -5 7 C-2.9375 6.3125 -2.9375 6.3125 -1 6 C-0.67 4.02 -0.34 2.04 0 0 Z " fill="#EAAFAF" transform="translate(28,16)"/>
<path d="M0 0 C3.65952031 2.43968021 3.65255774 3.95767321 5 8 C5.99 8.66 6.98 9.32 8 10 C5.6875 10.25 5.6875 10.25 3 10 C0.34684029 7.62130509 0.01896655 6.32875347 -0.1875 2.75 C-0.125625 1.8425 -0.06375 0.935 0 0 Z " fill="#F6DFDF" transform="translate(18,15)"/>
<path d="M0 0 C4.455 0.99 4.455 0.99 9 2 C9 2.99 9 3.98 9 5 C5.625 4.75 5.625 4.75 2 4 C1.34 2.68 0.68 1.36 0 0 Z " fill="#F2CECE" transform="translate(2,21)"/>
</svg>
